<svg xmlns="http://www.w3.org/2000/svg" xmlns:xlink="http://www.w3.org/1999/xlink" viewBox="0 0 326.22 72"><defs><style>.cls-1{fill:#fdfefe;}.cls-2{fill:url(#linear-gradient);}</style><linearGradient id="linear-gradient" y1="36" x2="83.14" y2="36" gradientUnits="userSpaceOnUse"><stop offset="0" stop-color="#ffed3b"/><stop offset="0.14" stop-color="#fee22e"/><stop offset="0.42" stop-color="#fed31b"/><stop offset="0.7" stop-color="#fdca10"/><stop offset="1" stop-color="#fdc70c"/></linearGradient></defs><g id="Layer_2" data-name="Layer 2"><g id="Layer_1-2" data-name="Layer 1"><path class="cls-1" d="M128.65,36.22c-.14,13-8.14,26.06-25.85,26.06s-25.92-12.74-25.92-26S85.37,9.72,102.8,9.72,128.79,23,128.65,36.22Zm-42.41.21c.21,8.28,4.68,17.14,16.56,17.14s16.34-8.93,16.49-17.21c.14-8.5-4.61-18-16.49-18S86,27.94,86.24,36.43Z"/><path class="cls-1" d="M168.75,10.65h9.51V61.13h-5.91v.07l-26.5-34.06v34h-9.5V10.73h7.7L168.75,42Z"/><path class="cls-1" d="M222.75,51.63H196.4l-4.32,9.5h-10.3l22.61-50.4h10.37l22.61,50.4H227ZM209.57,21.31l-9.36,21.46h18.72Z"/><path class="cls-1" d="M254.57,31.54,268,10.73h11.45v.43L259.33,40.32V61.13h-9.51V40.32L230.45,11.16v-.43h11.31Z"/><path class="cls-1" d="M316.71,10.65h9.51V61.13h-5.91v.07l-26.5-34.06v34h-9.5V10.73H292L316.71,42Z"/><polygon class="cls-2" points="83.14 0 41.57 72 33.7 58.36 36.46 54.34 45.96 40.5 66.05 11.23 66.05 10.8 54.6 10.8 41.19 31.58 28.39 10.8 17.09 10.8 17.09 11.23 35.98 39.67 29.08 50.36 0 0 83.14 0"/></g></g></svg>