<?xml version="1.0" encoding="utf-8"?>
<!-- Generator: Adobe Illustrator 25.2.3, SVG Export Plug-In . SVG Version: 6.00 Build 0)  -->
<svg version="1.1" id="Layer_1" xmlns="http://www.w3.org/2000/svg" xmlns:xlink="http://www.w3.org/1999/xlink" x="0px" y="0px"
	 viewBox="0 0 550.2 112.8" style="enable-background:new 0 0 550.2 112.8;" xml:space="preserve">
<style type="text/css">
	.st0{fill-rule:evenodd;clip-rule:evenodd;fill:url(#SVGID_1_);}
	.st1{opacity:0.26;}
	.st2{fill-rule:evenodd;clip-rule:evenodd;fill:url(#SVGID_2_);}
	.st3{fill-rule:evenodd;clip-rule:evenodd;fill:#D8DFED;}
</style>
<g id="Layer_2_1_">
	<g id="Layer_5">
		<linearGradient id="SVGID_1_" gradientUnits="userSpaceOnUse" x1="259.5791" y1="-6.8463" x2="273.7896" y2="82.68">
			<stop  offset="0" style="stop-color:#185ADB"/>
			<stop  offset="1" style="stop-color:#11419E"/>
		</linearGradient>
		<path class="st0" d="M390.4,2.1c-6.6,0-12,5.4-12,12l0,0c0,0.7,0.1,1.3,0.2,2c-6.4-3.1-13.9-2.7-19.9,1
			c-4.8-11.5-18.1-17-29.7-12.1c-7,3-12.1,9.3-13.5,16.8c-7.2-3.8-16.1-1.1-19.9,6c-1.6,3.1-2.2,6.6-1.4,10.1
			c-0.4,0.2-0.7,0.4-1,0.6c-7-7.2-18.1-8.5-26.7-3.2c-4.6-9.5-16-13.4-25.4-8.9c-6.5,3.1-10.6,9.7-10.8,16.9
			c-6.7-2.4-14.2-1.5-20.3,2.2c-7.1-13.4-23.7-18.5-37.1-11.4c-5.4,2.9-9.7,7.5-12.2,13.1c-3.1,0.7-5.9,2.1-8.2,4.3
			c-10.2-8.3-25.1-6.8-33.4,3.4c-0.4,0.5-0.8,1-1.1,1.5c-8.1-13.1-25.3-17.1-38.4-9c-2.9,1.8-5.4,4.1-7.4,6.7
			c-9.1-8-23.1-7.2-31.1,2c-1,1.2-1.9,2.4-2.7,3.8c-6.3-9.3-18.9-11.7-28.1-5.4C4.3,58.3,1,64.5,1,71.2v41.1h521.4v-2.2
			c17.4-2.2,29.8-18.1,27.6-35.5c-1.2-9.7-6.8-18.4-15.3-23.4c3.3-12.3-4-24.9-16.2-28.2c-8.1-2.2-16.7,0.2-22.5,6.2
			c-6.1-12.5-20.9-18.2-33.8-12.9C459.9,5.2,449-1.9,437.9,0.4c-8,1.7-14.2,7.9-15.9,15.8c-3.6-2.8-8-4.2-12.6-4.2
			c-2.4,0-4.8,0.4-7.1,1.2C401.9,7,396.6,2.1,390.4,2.1z"/>
		<g class="st1">
			<linearGradient id="SVGID_2_" gradientUnits="userSpaceOnUse" x1="261.4774" y1="-7.1476" x2="275.688" y2="82.3787">
				<stop  offset="0" style="stop-color:#185ADB"/>
				<stop  offset="1" style="stop-color:#11419E"/>
			</linearGradient>
			<path class="st2" d="M159.9,2.5c6.6,0,12,5.4,12,12c0,0,0,0,0,0c0,0.7-0.1,1.4-0.2,2c6.4-3.1,13.9-2.7,19.9,1
				c4.9-11.5,18.1-17,29.7-12.1c7,3,12.1,9.3,13.5,16.8c7.2-3.8,16.1-1.2,19.9,6c1.2,2.2,1.8,4.6,1.8,7c0,1.1-0.1,2.1-0.3,3.1
				c0.4,0.2,0.7,0.4,1,0.6c7-7.2,18.1-8.5,26.7-3.2c4.6-9.5,16-13.4,25.4-8.9c6.5,3.1,10.6,9.7,10.8,16.9c6.7-2.3,14.2-1.5,20.3,2.2
				c7.1-13.4,23.7-18.5,37.1-11.5c5.4,2.9,9.8,7.5,12.3,13.1c3.1,0.7,5.9,2.1,8.3,4.2c10.2-8.3,25.1-6.8,33.4,3.4
				c0.4,0.5,0.8,1,1.1,1.5c8.1-13.1,25.3-17.1,38.4-9c2.9,1.8,5.4,4.1,7.4,6.7c9.1-8.1,23-7.3,31.1,1.8c1.1,1.2,2,2.5,2.8,3.9
				c6.3-9.3,18.9-11.7,28.1-5.4c5.5,3.8,8.9,10,8.9,16.7v41.1H27.9v-2.2C10.4,108.4-1.9,92.5,0.3,75.1c1.2-9.7,6.9-18.4,15.3-23.4
				c-3.3-12.3,4-24.9,16.2-28.2c8.1-2.2,16.7,0.2,22.5,6.2C60.3,17.2,75.1,11.5,88,16.8c2.3-11.1,13.2-18.3,24.3-15.9
				c8,1.7,14.2,7.9,15.9,15.8c5.6-4.3,13-5.4,19.7-3C148.4,7.4,153.6,2.5,159.9,2.5z"/>
		</g>
	</g>
</g>
<g id="Layer_2_2_">
	<g id="Layer_5_1_">
		<path class="st3" d="M159.9,28.5c6.6,0,12,5.4,12,12l0,0c0,0.7-0.1,1.3-0.2,2c6.4-3.1,13.9-2.7,19.9,1c4.9-11.5,18.1-17,29.7-12.1
			c7,3,12.1,9.3,13.5,16.8c7.2-3.8,16.1-1.2,19.9,6c1.2,2.2,1.8,4.6,1.8,7c0,1.1-0.1,2.1-0.3,3.1c0.4,0.2,0.7,0.4,1,0.6
			c7-7.2,18.1-8.5,26.7-3.2c4.6-9.5,16-13.4,25.4-8.9c6.5,3.1,10.6,9.7,10.8,16.9c6.7-2.4,14.2-1.5,20.3,2.2
			c7.1-13.4,23.7-18.5,37.1-11.5c5.4,2.9,9.8,7.5,12.3,13.1c3.1,0.7,5.9,2.1,8.3,4.2c10.2-8.3,25.1-6.8,33.4,3.4
			c0.4,0.5,0.8,1,1.1,1.5c8.1-13.1,25.3-17.1,38.4-9c2.9,1.8,5.4,4.1,7.4,6.7c9.1-8.1,23-7.3,31.1,1.8c1.1,1.2,2,2.5,2.8,3.9
			c6.3-9.3,18.9-11.7,28.1-5.4c5.5,3.8,8.9,10,8.9,16.7v41.1H27.9v-2.2c-17.4-2.2-29.8-18.1-27.6-35.5c1.2-9.7,6.9-18.4,15.3-23.4
			c-3.3-12.3,4-24.9,16.2-28.2c8.1-2.2,16.7,0.2,22.5,6.2C60.3,43.2,75.1,37.5,88,42.8c2.3-11.1,13.2-18.3,24.3-15.9
			c8,1.7,14.2,7.9,15.9,15.8c3.6-2.8,8.1-4.3,12.6-4.2c2.4,0,4.8,0.4,7.1,1.2C148.4,33.4,153.6,28.5,159.9,28.5z"/>
	</g>
</g>
</svg>
