<?xml version="1.0" encoding="utf-8"?>
<!-- Generator: Adobe Illustrator 25.2.3, SVG Export Plug-In . SVG Version: 6.00 Build 0)  -->
<svg version="1.1" id="Layer_1" xmlns="http://www.w3.org/2000/svg" xmlns:xlink="http://www.w3.org/1999/xlink" x="0px" y="0px"
	 viewBox="0 0 1948.6 421" style="enable-background:new 0 0 1948.6 421;" xml:space="preserve">
<style type="text/css">
	.st0{display:none;}
	.st1{display:inline;}
	.st2{fill:#0060F9;}
	.st3{fill:#D8DFED;}
	.st4{fill:#32415D;}
	.st5{fill:#8E97A9;}
</style>
<g class="st0">
	<g id="Layer_2_1_" class="st1">
		<g id="Layer_1-2">
			<path class="st2" d="M1948.6,0v43.6c0,0-26.2,0.8-34.9,21s-6.7,83.5-6.1,103.9s-8.1,40.6-28.4,37.7s-29.8-18.9-31.2-41.4
				s-6.6-40.1-22.6-49.2c-15.9-9-30.5,20.8-53.7,37.4c-23.4,16.8-43.7,26.2-62,35c-4.3,2-8.2,4.7-11.7,7.9c-4.3,4-8,8.6-11,13.7
				c-3.3,5.4-5.9,11.1-8.7,16.4c-7.2,13.9-13.8,107-10.1,128.8s8.7,67-24.1,66.2c-28.1-0.6-32.2-28.4-33.3-51.3
				c-1.4-33,3.8-78.4-4.8-115.1c-4.3-17.9-11.8-33.6-25.1-44.9c-6.3-5.2-13.5-9.3-21.2-12c-26.2-9.4-51.7-24.7-72.8-19.7
				c-30.4,7.5-35.6,50.6-68.8,55.7c-51,7.8-49.3-50.9-72.3-82c-4.2-5.8-9.7-10.6-16.1-13.9c-16.3-8-29.9-28.5-47.5-32.9
				c-3.6-0.9-7.4-1.3-11.2-1c-4.3,0.4-8.4,1.8-12,4.1c-5.3,2.8-10.7,6.6-18.6,10c-16.6,6.8-56.1,0.2-85.4-0.2
				c-16.4-0.3-29.5,1.3-33.9,8.4c-14.6,23.9-9.2,69.4-10.4,96.3c-1.5,32-31.3,50.8-53.1,32s-13.1-46.5-14.6-104.1
				C1040,33.2,952,35.1,952,35.1V35c-5.8-0.2-24.9,4.8-37.5,14.2c-13.8,10.3-25.6,30.4-26,47.6c-0.6,26-4.8,45.4-21.8,53.7
				c-0.1,0.2-0.3,0.3-0.5,0.4c-4.7,2.1-9.9,2.9-15,2.2c-13.2-1.6-25.7-11.6-29.3-21.8s-5-18.5-10.6-26.1c-2.4-3.2-5.3-6-8.5-8.4
				c-1.2-0.9-2.5-1.6-3.8-2.2c-6.9-2.9-12.9,0.7-18,6.6c-2.4,2.9-4.6,6-6.5,9.2c-0.8,1.3-1.4,2.6-2.2,4c-7.1,13.1-31.6,25.6-48,28.4
				s-31.7,8.7-42.6,28.9c-10.8,20.3-18.1,48.6-15.8,66.9c2.9,22.6-3.1,46.1-24,50.6c-3.2,0.7-6.5,1-9.8,0.9
				c-5.6-0.2-11-1.9-15.7-4.9c-15.8-10.4-19.9-34.4-20.8-46.6c-1.1-13.6-3.6-27.1-7.5-40.2c-3.1-9.7-7.3-18.7-12.7-24.2l-0.3-0.3
				c-4.5-4.3-9.5-8.2-14.8-11.4c-13.7-8.8-30.9-16.2-45.5-23.6c-20.7-10.3-39.8,0-58,9.5s-33.7,17.2-62.1,13.4s-73-31.7-91-45.9
				s-30.2-14.8-39.9-9.2c-21.6,12.7-33.1,6.3-47.6,0.2c-1.9-0.9-3.8-1.6-5.8-2.3c-17.5-6.6-28.4-8.2-40.4-0.6
				c-6.9,4.4-13.2,11.9-17.6,23.8c-1.7,4.7-2.9,9.5-3.9,14.4c-1.1,6.1-1.8,12.3-1.9,18.6c-0.4,9.9-3.6,26-12.7,36.1
				c-5.8,6.8-14.5,10.4-23.4,9.7c-19.8-1-28.6-15.2-32.7-29.4c-1.5-5.4-2.7-10.9-3.4-16.5c-2-16.9-8.2-38.2-15.8-51.9
				S46.5,70.8,30,58.2C21.5,51.5,9.8,47.5,0,44V4.7L1948.6,0z"/>
			<path class="st3" d="M1948.6,0v43.6c0,0-26.2,0.8-34.9,21s-6.7,83.5-6.1,103.9s-8.1,40.6-28.4,37.7s-29.8-18.9-31.2-41.4
				s-6.6-40.1-22.6-49.2c-15.9-9-30.5,20.8-53.7,37.4c-23.4,16.8-43.7,26.2-62,35c-4.3,2-8.2,4.7-11.7,7.9c-4.3,4-8,8.6-11,13.7
				c-3.3,5.4-5.9,11.1-8.7,16.4c-7.2,13.9-13.8,107-10.1,128.8s8.7,67-24.1,66.2c-28.1-0.6-32.2-28.4-33.3-51.3
				c-1.4-33,3.8-78.4-4.8-115.1c-4.3-17.9-11.8-33.6-25.1-44.9c-6.3-5.2-13.5-9.3-21.2-12c-26.2-9.4-51.7-24.7-72.8-19.7
				c-30.4,7.5-35.6,50.6-68.8,55.7c-51,7.8-49.3-50.9-72.3-82c-4.2-5.8-9.7-10.6-16.1-13.9c-16.3-8-29.9-28.5-47.5-32.9
				c-3.6-0.9-7.4-1.3-11.2-1c-4.3,0.4-8.4,1.8-12,4.1c-5.3,2.8-10.7,6.6-18.6,10c-16.6,6.8-56.1,0.2-85.4-0.2
				c-16.4-0.3-29.5,1.3-33.9,8.4c-14.6,23.9-9.2,69.4-10.4,96.3c-1.5,32-31.3,50.8-53.1,32s-13.1-46.5-14.6-104.1
				C1040,33.2,952,35.1,952,35.1V35c-5.8-0.2-24.9,4.8-37.5,14.2c-13.8,10.3-25.6,30.4-26,47.6c-0.6,26-4.8,45.4-21.8,53.7
				c-0.1,0.2-0.3,0.3-0.5,0.4c-4.7,2.1-9.9,2.9-15,2.2c-13.2-1.6-25.7-11.6-29.3-21.8s-5-18.5-10.6-26.1c-2.4-3.2-5.3-6-8.5-8.4
				c-1.2-0.9-2.5-1.6-3.8-2.2c-6.9-2.9-12.9,0.7-18,6.6c-2.4,2.9-4.6,6-6.5,9.2c-0.8,1.3-1.4,2.6-2.2,4c-7.1,13.1-31.6,25.6-48,28.4
				s-31.7,8.7-42.6,28.9c-10.8,20.3-18.1,48.6-15.8,66.9c2.9,22.6-3.1,46.1-24,50.6c-3.2,0.7-6.5,1-9.8,0.9
				c-5.6-0.2-11-1.9-15.7-4.9c-15.8-10.4-19.9-34.4-20.8-46.6c-1.1-13.6-3.6-27.1-7.5-40.2c-3.1-9.7-7.3-18.7-12.7-24.2l-0.3-0.3
				c-4.5-4.3-9.5-8.2-14.8-11.4c-13.7-8.8-30.9-16.2-45.5-23.6c-20.7-10.3-39.8,0-58,9.5s-33.7,17.2-62.1,13.4s-73-31.7-91-45.9
				s-30.2-14.8-39.9-9.2c-21.6,12.7-33.1,6.3-47.6,0.2c-1.9-0.9-3.8-1.6-5.8-2.3c-17.5-6.6-28.4-8.2-40.4-0.6
				c-6.9,4.4-13.2,11.9-17.6,23.8c-1.7,4.7-2.9,9.5-3.9,14.4c-1.1,6.1-1.8,12.3-1.9,18.6c-0.4,9.9-3.6,26-12.7,36.1
				c-5.8,6.8-14.5,10.4-23.4,9.7c-19.8-1-28.6-15.2-32.7-29.4c-1.5-5.4-2.7-10.9-3.4-16.5c-2-16.9-8.2-38.2-15.8-51.9
				S46.5,70.8,30,58.2C21.5,51.5,9.8,47.5,0,44V4.7L1948.6,0z"/>
		</g>
	</g>
</g>
<ellipse class="st4" cx="974.3" cy="108.6" rx="974.3" ry="230.2"/>
<ellipse class="st5" cx="974.3" cy="32.8" rx="974.3" ry="230.2"/>
<ellipse class="st3" cx="974.3" cy="-43" rx="974.3" ry="230.2"/>
</svg>
