<svg xmlns="http://www.w3.org/2000/svg" viewBox="0 0 21.42 49.84"><defs><style>.cls-1{fill:#fff;}</style></defs><g id="Layer_2" data-name="Layer 2"><g id="Layer_1-2" data-name="Layer 1"><g id="hero"><path class="cls-1" d="M19.47,11.1a1.92,1.92,0,0,1-1.38-.58l-6-6a1.93,1.93,0,0,0-2.76,0l-6,6.05A1.95,1.95,0,0,1,.56,7.78l6-6.05a5.82,5.82,0,0,1,8.28,0l6,6.05a1.94,1.94,0,0,1,0,2.75A1.92,1.92,0,0,1,19.47,11.1Zm-4.62,37,6-6a1.94,1.94,0,1,0-2.76-2.74l-6,6a1.93,1.93,0,0,1-2.76,0l-6-6A1.95,1.95,0,0,0,.56,42.06l6,6a5.82,5.82,0,0,0,8.28,0Zm2.58-23.29a6.82,6.82,0,1,0-6.82,6.82A6.83,6.83,0,0,0,17.43,24.82Zm-3.9,0a2.92,2.92,0,1,1-2.92-2.92A2.92,2.92,0,0,1,13.53,24.82Z"/></g></g></g></svg>